<svg xmlns="http://www.w3.org/2000/svg" xmlns:svg="http://www.w3.org/2000/svg" xmlns:xlink="http://www.w3.org/1999/xlink" id="svg11300" width="30.575" height="30.58" version="1.1"><defs id="defs3"><marker style="overflow:visible" id="Arrow2Mstart" orient="auto" refX="0" refY="0"><path style="font-size:12px;fill-rule:evenodd;stroke-width:.625;stroke-linejoin:round" id="path4020" d="M 8.7185878,4.0337352 -2.2072895,0.01601326 8.7185884,-4.0017078 c -1.7454984,2.3720609 -1.7354408,5.6174519 -6e-7,8.035443 z" transform="scale(0.6,0.6)"/></marker><marker style="overflow:visible" id="Arrow1Lstart" orient="auto" refX="0" refY="0"><path style="fill-rule:evenodd;stroke:#000;stroke-width:1pt;marker-start:none" id="path3996" d="M 0,0 5,-5 -12.5,0 5,5 0,0 z" transform="matrix(0.8,0,0,0.8,10,0)"/></marker><linearGradient id="linearGradient4604"><stop id="stop4606" offset="0" style="stop-color:#383936;stop-opacity:1"/><stop id="stop4608" offset="1" style="stop-color:#555753;stop-opacity:1"/></linearGradient><linearGradient id="linearGradient6105"><stop id="stop6107" offset="0" style="stop-color:#fff;stop-opacity:1"/><stop id="stop6109" offset="1" style="stop-color:#fff;stop-opacity:0"/></linearGradient><linearGradient id="linearGradient6087"><stop id="stop6089" offset="0" style="stop-color:#2e3436;stop-opacity:1"/><stop id="stop6091" offset="1" style="stop-color:#2e3436;stop-opacity:0"/></linearGradient><linearGradient id="linearGradient2224"><stop id="stop2226" offset="0" style="stop-color:#7c7c7c;stop-opacity:1"/><stop id="stop2228" offset="1" style="stop-color:#b8b8b8;stop-opacity:1"/></linearGradient><linearGradient id="linearGradient2251"><stop id="stop2253" offset="0" style="stop-color:#fff;stop-opacity:1"/><stop id="stop2255" offset="1" style="stop-color:#fff;stop-opacity:0"/></linearGradient><linearGradient id="linearGradient4776"><stop id="stop4778" offset="0" style="stop-color:#000;stop-opacity:1"/><stop id="stop4780" offset="1" style="stop-color:#000;stop-opacity:0"/></linearGradient><linearGradient id="linearGradient4754"><stop style="stop-color:#d3d7cf;stop-opacity:1" id="stop4756" offset="0"/><stop style="stop-color:#888a85;stop-opacity:0" id="stop4758" offset="1"/></linearGradient><linearGradient id="linearGradient4748"><stop id="stop4750" offset="0" style="stop-color:#999a98;stop-opacity:1"/><stop style="stop-color:#caccc8;stop-opacity:1" id="stop4760" offset=".5"/><stop id="stop4752" offset="1" style="stop-color:#616161;stop-opacity:1"/></linearGradient><linearGradient id="linearGradient4693"><stop id="stop4695" offset="0" style="stop-color:#000;stop-opacity:1"/><stop id="stop4697" offset="1" style="stop-color:#000;stop-opacity:0"/></linearGradient><linearGradient id="linearGradient4573"><stop id="stop4575" offset="0" style="stop-color:#000;stop-opacity:1"/><stop id="stop4577" offset="1" style="stop-color:#000;stop-opacity:0"/></linearGradient><linearGradient id="linearGradient4565"><stop style="stop-color:#7f7f70;stop-opacity:1" id="stop4567" offset="0"/><stop style="stop-color:#a6a69c;stop-opacity:1" id="stop4569" offset="1"/></linearGradient><linearGradient id="linearGradient4537"><stop style="stop-color:#fff;stop-opacity:1" id="stop6075" offset="0"/><stop style="stop-color:#e6e6e6;stop-opacity:1" id="stop6073" offset="1"/></linearGradient><linearGradient id="linearGradient11520"><stop style="stop-color:#fff;stop-opacity:1" id="stop11522" offset="0"/><stop style="stop-color:#dcdcdc;stop-opacity:1" id="stop11524" offset="1"/></linearGradient><linearGradient id="linearGradient11508"><stop style="stop-color:#000;stop-opacity:1" id="stop11510" offset="0"/><stop style="stop-color:#000;stop-opacity:0" id="stop11512" offset="1"/></linearGradient><linearGradient id="linearGradient11494"><stop style="stop-color:#ef2929;stop-opacity:1" id="stop11496" offset="0"/><stop style="stop-color:#ef2929;stop-opacity:0" id="stop11498" offset="1"/></linearGradient><linearGradient id="linearGradient11415"><stop style="stop-color:#204a87;stop-opacity:0" id="stop11417" offset="0"/><stop id="stop11423" offset=".5" style="stop-color:#204a87;stop-opacity:1"/><stop style="stop-color:#204a87;stop-opacity:0" id="stop11419" offset="1"/></linearGradient><linearGradient id="linearGradient11399"><stop style="stop-color:#000;stop-opacity:1" id="stop11401" offset="0"/><stop style="stop-color:#000;stop-opacity:0" id="stop11403" offset="1"/></linearGradient><linearGradient id="linearGradient11425" x1="15.828" x2="43.616" y1="3.774" y2="34.462" gradientTransform="translate(-60.28571,-0.285714)" gradientUnits="userSpaceOnUse" xlink:href="#linearGradient11415"/><linearGradient id="linearGradient11427" x1="9.696" x2="35.68" y1="9.346" y2="39.034" gradientTransform="translate(-60.57143,0)" gradientUnits="userSpaceOnUse" xlink:href="#linearGradient11415"/><linearGradient id="linearGradient11439" x1="13.267" x2="26.759" y1="19.774" y2="33.462" gradientTransform="translate(-60.85714,0.428571)" gradientUnits="userSpaceOnUse" xlink:href="#linearGradient11415"/><radialGradient id="radialGradient11441" cx="12.071" cy="39.143" r="8.5" fx="12.071" fy="39.143" gradientTransform="matrix(1,0,0,0.487395,0,20.06483)" gradientUnits="userSpaceOnUse" xlink:href="#linearGradient11399"/><radialGradient id="radialGradient11500" cx="27.577" cy="15.048" r="3.834" fx="27.577" fy="15.048" gradientTransform="matrix(1.243453,0,0,1.243453,-6.713754,-3.742847)" gradientUnits="userSpaceOnUse" xlink:href="#linearGradient11494"/><radialGradient id="radialGradient11504" cx="27.577" cy="16.049" r="3.834" fx="27.577" fy="16.049" gradientTransform="matrix(1.243453,0,0,1.243453,-6.713754,-3.742847)" gradientUnits="userSpaceOnUse" xlink:href="#linearGradient11494"/><radialGradient id="radialGradient11514" cx="30.204" cy="44.565" r="6.566" fx="30.204" fy="44.565" gradientTransform="matrix(1,0,0,0.338462,0,29.48178)" gradientUnits="userSpaceOnUse" xlink:href="#linearGradient11508"/><radialGradient id="radialGradient11526" cx="24.446" cy="35.878" r="20.531" fx="24.446" fy="35.878" gradientTransform="matrix(1.995058,0,0,1.995058,-24.32488,-35.70087)" gradientUnits="userSpaceOnUse" xlink:href="#linearGradient11520"/><radialGradient id="radialGradient11532" cx="30.204" cy="44.565" r="6.566" fx="30.204" fy="44.565" gradientTransform="matrix(1,0,0,0.338462,0,29.48178)" gradientUnits="userSpaceOnUse" xlink:href="#linearGradient11508"/><radialGradient id="radialGradient1348" cx="30.204" cy="44.565" r="6.566" fx="30.204" fy="44.565" gradientTransform="matrix(1,0,0,0.338462,0,29.48178)" gradientUnits="userSpaceOnUse" xlink:href="#linearGradient11508"/><radialGradient id="radialGradient1350" cx="24.446" cy="35.878" r="20.531" fx="24.446" fy="35.878" gradientTransform="matrix(1.995058,0,0,1.995058,-24.32488,-35.70087)" gradientUnits="userSpaceOnUse" xlink:href="#linearGradient11520"/><radialGradient id="radialGradient1352" cx="27.577" cy="16.049" r="3.834" fx="27.577" fy="16.049" gradientTransform="matrix(1.243453,0,0,1.243453,-6.713754,-3.742847)" gradientUnits="userSpaceOnUse" xlink:href="#linearGradient11494"/><radialGradient id="radialGradient1354" cx="27.577" cy="15.048" r="3.834" fx="27.577" fy="15.048" gradientTransform="matrix(1.243453,0,0,1.243453,-6.713754,-3.742847)" gradientUnits="userSpaceOnUse" xlink:href="#linearGradient11494"/><radialGradient id="radialGradient1356" cx="30.204" cy="44.565" r="6.566" fx="30.204" fy="44.565" gradientTransform="matrix(1,0,0,0.338462,0,29.48178)" gradientUnits="userSpaceOnUse" xlink:href="#linearGradient11508"/><radialGradient id="radialGradient1366" cx="24.446" cy="35.878" r="20.531" fx="24.446" fy="35.878" gradientTransform="matrix(2.049266,0,0,2.049266,-25.65002,-37.31089)" gradientUnits="userSpaceOnUse" xlink:href="#linearGradient11520"/><linearGradient id="linearGradient4746" x1="24.804" x2="24.804" y1="7.36" y2="13.861" gradientUnits="userSpaceOnUse" xlink:href="#linearGradient4754"/><linearGradient id="linearGradient6093" x1="23.204" x2="30.742" y1="24.078" y2="36.054" gradientTransform="translate(-1.9533215,26.867781)" gradientUnits="userSpaceOnUse" xlink:href="#linearGradient6087"/><linearGradient id="linearGradient6093-7" x1="23.204" x2="30.742" y1="24.078" y2="36.054" gradientTransform="translate(-1.9533215,26.867781)" gradientUnits="userSpaceOnUse" xlink:href="#linearGradient6087-4"/><linearGradient id="linearGradient4746-2" x1="24.804" x2="24.804" y1="7.36" y2="13.861" gradientUnits="userSpaceOnUse" xlink:href="#linearGradient4754-9"/><radialGradient id="radialGradient1366-9" cx="24.446" cy="35.878" r="20.531" fx="24.446" fy="35.878" gradientTransform="matrix(2.049266,0,0,2.049266,-25.65002,-37.31089)" gradientUnits="userSpaceOnUse" xlink:href="#linearGradient11520-2"/><radialGradient id="radialGradient1356-1" cx="30.204" cy="44.565" r="6.566" fx="30.204" fy="44.565" gradientTransform="matrix(1,0,0,0.338462,0,29.48178)" gradientUnits="userSpaceOnUse" xlink:href="#linearGradient11508-9"/><radialGradient id="radialGradient1354-8" cx="27.577" cy="15.048" r="3.834" fx="27.577" fy="15.048" gradientTransform="matrix(1.243453,0,0,1.243453,-6.713754,-3.742847)" gradientUnits="userSpaceOnUse" xlink:href="#linearGradient11494-1"/><radialGradient id="radialGradient1352-2" cx="27.577" cy="16.049" r="3.834" fx="27.577" fy="16.049" gradientTransform="matrix(1.243453,0,0,1.243453,-6.713754,-3.742847)" gradientUnits="userSpaceOnUse" xlink:href="#linearGradient11494-1"/><radialGradient id="radialGradient1350-4" cx="24.446" cy="35.878" r="20.531" fx="24.446" fy="35.878" gradientTransform="matrix(1.995058,0,0,1.995058,-24.32488,-35.70087)" gradientUnits="userSpaceOnUse" xlink:href="#linearGradient11520-2"/><radialGradient id="radialGradient1348-1" cx="30.204" cy="44.565" r="6.566" fx="30.204" fy="44.565" gradientTransform="matrix(1,0,0,0.338462,0,29.48178)" gradientUnits="userSpaceOnUse" xlink:href="#linearGradient11508-9"/><radialGradient id="radialGradient11532-5" cx="30.204" cy="44.565" r="6.566" fx="30.204" fy="44.565" gradientTransform="matrix(1,0,0,0.338462,0,29.48178)" gradientUnits="userSpaceOnUse" xlink:href="#linearGradient11508-9"/><radialGradient id="radialGradient11526-5" cx="24.446" cy="35.878" r="20.531" fx="24.446" fy="35.878" gradientTransform="matrix(1.995058,0,0,1.995058,-24.32488,-35.70087)" gradientUnits="userSpaceOnUse" xlink:href="#linearGradient11520-2"/><radialGradient id="radialGradient11514-5" cx="30.204" cy="44.565" r="6.566" fx="30.204" fy="44.565" gradientTransform="matrix(1,0,0,0.338462,0,29.48178)" gradientUnits="userSpaceOnUse" xlink:href="#linearGradient11508-9"/><radialGradient id="radialGradient11504-4" cx="27.577" cy="16.049" r="3.834" fx="27.577" fy="16.049" gradientTransform="matrix(1.243453,0,0,1.243453,-6.713754,-3.742847)" gradientUnits="userSpaceOnUse" xlink:href="#linearGradient11494-1"/><radialGradient id="radialGradient11500-2" cx="27.577" cy="15.048" r="3.834" fx="27.577" fy="15.048" gradientTransform="matrix(1.243453,0,0,1.243453,-6.713754,-3.742847)" gradientUnits="userSpaceOnUse" xlink:href="#linearGradient11494-1"/><radialGradient id="radialGradient11441-3" cx="12.071" cy="39.143" r="8.5" fx="12.071" fy="39.143" gradientTransform="matrix(1,0,0,0.487395,0,20.06483)" gradientUnits="userSpaceOnUse" xlink:href="#linearGradient11399-6"/><linearGradient id="linearGradient11439-0" x1="13.267" x2="26.759" y1="19.774" y2="33.462" gradientTransform="translate(-60.85714,0.428571)" gradientUnits="userSpaceOnUse" xlink:href="#linearGradient11415-4"/><linearGradient id="linearGradient11427-5" x1="9.696" x2="35.68" y1="9.346" y2="39.034" gradientTransform="translate(-60.57143,0)" gradientUnits="userSpaceOnUse" xlink:href="#linearGradient11415-4"/><linearGradient id="linearGradient11425-5" x1="15.828" x2="43.616" y1="3.774" y2="34.462" gradientTransform="translate(-60.28571,-0.285714)" gradientUnits="userSpaceOnUse" xlink:href="#linearGradient11415-4"/><linearGradient id="linearGradient11399-6"><stop id="stop11401-0" offset="0" style="stop-color:#000;stop-opacity:1"/><stop id="stop11403-5" offset="1" style="stop-color:#000;stop-opacity:0"/></linearGradient><linearGradient id="linearGradient11415-4"><stop id="stop11417-4" offset="0" style="stop-color:#204a87;stop-opacity:0"/><stop style="stop-color:#204a87;stop-opacity:1" id="stop11423-4" offset=".5"/><stop id="stop11419-6" offset="1" style="stop-color:#204a87;stop-opacity:0"/></linearGradient><linearGradient id="linearGradient11494-1"><stop id="stop11496-4" offset="0" style="stop-color:#ef2929;stop-opacity:1"/><stop id="stop11498-1" offset="1" style="stop-color:#ef2929;stop-opacity:0"/></linearGradient><linearGradient id="linearGradient11508-9"><stop id="stop11510-5" offset="0" style="stop-color:#000;stop-opacity:1"/><stop id="stop11512-5" offset="1" style="stop-color:#000;stop-opacity:0"/></linearGradient><linearGradient id="linearGradient11520-2"><stop id="stop11522-4" offset="0" style="stop-color:#fff;stop-opacity:1"/><stop id="stop11524-6" offset="1" style="stop-color:#dcdcdc;stop-opacity:1"/></linearGradient><linearGradient id="linearGradient4537-5"><stop id="stop6075-5" offset="0" style="stop-color:#fff;stop-opacity:1"/><stop id="stop6073-6" offset="1" style="stop-color:#e6e6e6;stop-opacity:1"/></linearGradient><linearGradient id="linearGradient4565-5"><stop id="stop4567-9" offset="0" style="stop-color:#7f7f70;stop-opacity:1"/><stop id="stop4569-5" offset="1" style="stop-color:#a6a69c;stop-opacity:1"/></linearGradient><linearGradient id="linearGradient4573-0"><stop style="stop-color:#000;stop-opacity:1" id="stop4575-1" offset="0"/><stop style="stop-color:#000;stop-opacity:0" id="stop4577-9" offset="1"/></linearGradient><linearGradient id="linearGradient4693-8"><stop style="stop-color:#000;stop-opacity:1" id="stop4695-6" offset="0"/><stop style="stop-color:#000;stop-opacity:0" id="stop4697-3" offset="1"/></linearGradient><linearGradient id="linearGradient4748-7"><stop style="stop-color:#999a98;stop-opacity:1" id="stop4750-8" offset="0"/><stop id="stop4760-5" offset=".5" style="stop-color:#caccc8;stop-opacity:1"/><stop style="stop-color:#616161;stop-opacity:1" id="stop4752-3" offset="1"/></linearGradient><linearGradient id="linearGradient4754-9"><stop id="stop4756-0" offset="0" style="stop-color:#d3d7cf;stop-opacity:1"/><stop id="stop4758-4" offset="1" style="stop-color:#888a85;stop-opacity:0"/></linearGradient><linearGradient id="linearGradient4776-3"><stop style="stop-color:#000;stop-opacity:1" id="stop4778-8" offset="0"/><stop style="stop-color:#000;stop-opacity:0" id="stop4780-1" offset="1"/></linearGradient><linearGradient id="linearGradient2251-8"><stop style="stop-color:#fff;stop-opacity:1" id="stop2253-9" offset="0"/><stop style="stop-color:#fff;stop-opacity:0" id="stop2255-6" offset="1"/></linearGradient><linearGradient id="linearGradient2224-9"><stop style="stop-color:#7c7c7c;stop-opacity:1" id="stop2226-0" offset="0"/><stop style="stop-color:#b8b8b8;stop-opacity:1" id="stop2228-5" offset="1"/></linearGradient><linearGradient id="linearGradient6087-4"><stop style="stop-color:#2e3436;stop-opacity:1" id="stop6089-9" offset="0"/><stop style="stop-color:#2e3436;stop-opacity:0" id="stop6091-5" offset="1"/></linearGradient><linearGradient id="linearGradient6105-8"><stop style="stop-color:#fff;stop-opacity:1" id="stop6107-5" offset="0"/><stop style="stop-color:#fff;stop-opacity:0" id="stop6109-9" offset="1"/></linearGradient><linearGradient id="linearGradient4604-2"><stop style="stop-color:#383936;stop-opacity:1" id="stop4606-4" offset="0"/><stop style="stop-color:#555753;stop-opacity:1" id="stop4608-3" offset="1"/></linearGradient><filter id="filter5191" color-interpolation-filters="sRGB"><feGaussianBlur id="feGaussianBlur5193" stdDeviation=".056"/></filter><marker style="overflow:visible" id="Arrow2MstartK" orient="auto" refX="0" refY="0"><path style="font-size:12px;fill:#d70000;fill-rule:evenodd;stroke:#d70000;stroke-width:.625;stroke-linejoin:round" id="path5406" d="M 8.7185878,4.0337352 -2.2072895,0.01601326 8.7185884,-4.0017078 c -1.7454984,2.3720609 -1.7354408,5.6174519 -6e-7,8.035443 z" transform="scale(0.6,0.6)"/></marker><radialGradient id="radialGradient5710" cx="24.97" cy="42.211" r="20.815" fx="24.97" fy="42.211" gradientTransform="matrix(2.5037404,0,0,0.71763224,-10.323035,106.41179)" gradientUnits="userSpaceOnUse" xlink:href="#linearGradient4573"/><linearGradient id="linearGradient5712" x1="25.349" x2="25.349" y1="37.548" y2="39.751" gradientTransform="matrix(0.95115601,0,0,0.99999986,-0.3812073,21.567781)" gradientUnits="userSpaceOnUse" xlink:href="#linearGradient4604"/><linearGradient id="linearGradient5714" x1="37.271" x2="35.872" y1="27.273" y2="22.674" gradientTransform="matrix(1.1259823,0,0,1.2727908,-5.7213174,13.861254)" gradientUnits="userSpaceOnUse" xlink:href="#linearGradient4537"/><radialGradient id="radialGradient5716" cx="13.833" cy="17.904" r="1.812" fx="13.833" fy="17.904" gradientTransform="matrix(2.5037404,0,0,5.0685488,-1.3565136,-56.353675)" gradientUnits="userSpaceOnUse" xlink:href="#linearGradient4776"/><radialGradient id="radialGradient5718" cx="13.833" cy="17.904" r="1.812" fx="13.833" fy="17.904" gradientTransform="matrix(2.5037404,0,0,5.0685488,22.730913,-54.421818)" gradientUnits="userSpaceOnUse" xlink:href="#linearGradient4776"/><radialGradient id="radialGradient5720" cx="13.833" cy="17.904" r="1.812" fx="13.833" fy="17.904" gradientTransform="matrix(2.5037404,0,0,5.0685488,-9.1682438,-55.601443)" gradientUnits="userSpaceOnUse" xlink:href="#linearGradient4776"/><radialGradient id="radialGradient5722" cx="12.993" cy="18.4" r="2.162" fx="12.993" fy="18.4" gradientTransform="matrix(2.5037404,0,0,2.5037404,-9.1189579,-8.3341278)" gradientUnits="userSpaceOnUse" xlink:href="#linearGradient6105"/><radialGradient id="radialGradient5724" cx="12.887" cy="16.771" r="1.591" fx="12.887" fy="16.771" gradientTransform="matrix(4.8683841,0,0,4.8683841,-37.499914,-44.498568)" gradientUnits="userSpaceOnUse" xlink:href="#linearGradient4693"/><radialGradient id="radialGradient5726" cx="12.887" cy="16.771" r="1.591" fx="12.887" fy="16.771" gradientTransform="matrix(4.8683841,0,0,4.8683841,3.7238132,-44.498568)" gradientUnits="userSpaceOnUse" xlink:href="#linearGradient4693"/><linearGradient id="linearGradient5728" x1="10.998" x2="14.54" y1="11.929" y2="13.486" gradientTransform="matrix(2.5037404,0,0,2.5037404,-83.590118,-7.1111294)" gradientUnits="userSpaceOnUse" xlink:href="#linearGradient4748"/><linearGradient id="linearGradient5730" x1="10.998" x2="14.54" y1="11.929" y2="13.486" gradientTransform="matrix(2.5037404,0,0,2.5037404,-10.928578,-7.1111294)" gradientUnits="userSpaceOnUse" xlink:href="#linearGradient4748"/><radialGradient id="radialGradient5732" cx="12.887" cy="16.771" r="1.591" fx="12.887" fy="16.771" gradientTransform="matrix(4.8683841,0,0,4.8683841,-15.977731,-44.588608)" gradientUnits="userSpaceOnUse" xlink:href="#linearGradient4693"/><linearGradient id="linearGradient5734" x1="24.031" x2="24.031" y1="7.531" y2="15.531" gradientTransform="matrix(1.125982,0,0,1.126747,-5.6329285,16.201976)" gradientUnits="userSpaceOnUse" xlink:href="#linearGradient4748"/><linearGradient id="linearGradient5736" x1="35.997" x2="33.665" y1="40.458" y2="37.771" gradientTransform="matrix(0.73457392,0,0,0.73094005,11.59325,25.545931)" gradientUnits="userSpaceOnUse" xlink:href="#linearGradient2224"/><linearGradient id="linearGradient5738" x1="33.396" x2="34.17" y1="36.921" y2="38.07" gradientTransform="matrix(0.73457392,0,0,0.73094005,11.80062,25.327991)" gradientUnits="userSpaceOnUse" xlink:href="#linearGradient2251"/><radialGradient id="radialGradient5740" cx="12.993" cy="18.4" r="2.162" fx="12.993" fy="18.4" gradientTransform="matrix(2.5037404,0,0,2.5037404,6.8299493,-8.3341278)" gradientUnits="userSpaceOnUse" xlink:href="#linearGradient6105"/><radialGradient id="radialGradient5742" cx="12.993" cy="18.4" r="2.162" fx="12.993" fy="18.4" gradientTransform="matrix(2.5037404,0,0,2.5037404,21.484943,-8.3341278)" gradientUnits="userSpaceOnUse" xlink:href="#linearGradient6105"/><radialGradient id="radialGradient5744" cx="24.97" cy="42.211" r="20.815" fx="24.97" fy="42.211" gradientTransform="matrix(2.5037404,0,0,0.71763224,-10.323035,106.41179)" gradientUnits="userSpaceOnUse" xlink:href="#linearGradient4573-0"/><linearGradient id="linearGradient5746" x1="25.349" x2="25.349" y1="37.548" y2="39.751" gradientTransform="matrix(0.95115601,0,0,0.99999986,-0.7812073,26.867781)" gradientUnits="userSpaceOnUse" xlink:href="#linearGradient4604-2"/><linearGradient id="linearGradient5748" x1="37.271" x2="35.872" y1="27.273" y2="22.674" gradientTransform="matrix(1.1259823,0,0,1.2727908,-6.1213174,19.161254)" gradientUnits="userSpaceOnUse" xlink:href="#linearGradient4537-5"/><radialGradient id="radialGradient5750" cx="13.833" cy="17.904" r="1.812" fx="13.833" fy="17.904" gradientTransform="matrix(2.5037404,0,0,5.0685488,-1.3565136,-56.353675)" gradientUnits="userSpaceOnUse" xlink:href="#linearGradient4776-3"/><radialGradient id="radialGradient5752" cx="13.833" cy="17.904" r="1.812" fx="13.833" fy="17.904" gradientTransform="matrix(2.5037404,0,0,5.0685488,22.730913,-54.421818)" gradientUnits="userSpaceOnUse" xlink:href="#linearGradient4776-3"/><radialGradient id="radialGradient5754" cx="13.833" cy="17.904" r="1.812" fx="13.833" fy="17.904" gradientTransform="matrix(2.5037404,0,0,5.0685488,-9.1682438,-55.601443)" gradientUnits="userSpaceOnUse" xlink:href="#linearGradient4776-3"/><radialGradient id="radialGradient5756" cx="12.993" cy="18.4" r="2.162" fx="12.993" fy="18.4" gradientTransform="matrix(2.5037404,0,0,2.5037404,-9.1189579,-8.3341278)" gradientUnits="userSpaceOnUse" xlink:href="#linearGradient6105-8"/><radialGradient id="radialGradient5758" cx="12.887" cy="16.771" r="1.591" fx="12.887" fy="16.771" gradientTransform="matrix(4.8683841,0,0,4.8683841,-37.499914,-44.498568)" gradientUnits="userSpaceOnUse" xlink:href="#linearGradient4693-8"/><radialGradient id="radialGradient5760" cx="12.887" cy="16.771" r="1.591" fx="12.887" fy="16.771" gradientTransform="matrix(4.8683841,0,0,4.8683841,3.7238132,-44.498568)" gradientUnits="userSpaceOnUse" xlink:href="#linearGradient4693-8"/><linearGradient id="linearGradient5762" x1="10.998" x2="14.54" y1="11.929" y2="13.486" gradientTransform="matrix(2.5037404,0,0,2.5037404,-83.590118,-7.1111294)" gradientUnits="userSpaceOnUse" xlink:href="#linearGradient4748-7"/><linearGradient id="linearGradient5764" x1="10.998" x2="14.54" y1="11.929" y2="13.486" gradientTransform="matrix(2.5037404,0,0,2.5037404,-10.928578,-7.1111294)" gradientUnits="userSpaceOnUse" xlink:href="#linearGradient4748-7"/><radialGradient id="radialGradient5766" cx="12.887" cy="16.771" r="1.591" fx="12.887" fy="16.771" gradientTransform="matrix(4.8683841,0,0,4.8683841,-15.977731,-44.588608)" gradientUnits="userSpaceOnUse" xlink:href="#linearGradient4693-8"/><linearGradient id="linearGradient5768" x1="24.031" x2="24.031" y1="7.531" y2="15.531" gradientTransform="matrix(1.125982,0,0,1.126747,-6.0329285,21.501976)" gradientUnits="userSpaceOnUse" xlink:href="#linearGradient4748-7"/><linearGradient id="linearGradient5770" x1="35.997" x2="33.665" y1="40.458" y2="37.771" gradientTransform="matrix(0.73457392,0,0,0.73094005,11.19325,30.845931)" gradientUnits="userSpaceOnUse" xlink:href="#linearGradient2224-9"/><linearGradient id="linearGradient5772" x1="33.396" x2="34.17" y1="36.921" y2="38.07" gradientTransform="matrix(0.73457392,0,0,0.73094005,11.40062,30.627991)" gradientUnits="userSpaceOnUse" xlink:href="#linearGradient2251-8"/><radialGradient id="radialGradient5774" cx="12.993" cy="18.4" r="2.162" fx="12.993" fy="18.4" gradientTransform="matrix(2.5037404,0,0,2.5037404,6.8299493,-8.3341278)" gradientUnits="userSpaceOnUse" xlink:href="#linearGradient6105-8"/><radialGradient id="radialGradient5776" cx="12.993" cy="18.4" r="2.162" fx="12.993" fy="18.4" gradientTransform="matrix(2.5037404,0,0,2.5037404,21.484943,-8.3341278)" gradientUnits="userSpaceOnUse" xlink:href="#linearGradient6105-8"/></defs><metadata id="metadata4"/><g id="layer1" transform="translate(0.9533215,-22.081808)"><path id="path4571" d="m 45.785164,42.210564 a 20.815456,5.9662137 0 1 1 -41.6309129,0 20.815456,5.9662137 0 1 1 41.6309129,0 z" transform="matrix(0.47921121,0,0,0.25968095,-2.5440852,27.053207)" style="opacity:.38461537;color:#000;fill:url(#radialGradient5710);fill-opacity:1;fill-rule:evenodd;stroke:none;stroke-width:1;marker:none;visibility:visible;display:block;overflow:visible"/><path id="path4535" d="m 2.6992924,33.8745 -0.092836,4.345788 13.6110406,0 L 16.004674,33.158984 2.6992924,33.8745 z" style="color:#000;fill:url(#linearGradient5712);fill-opacity:1;fill-rule:evenodd;stroke:#2e3436;stroke-width:.39940217;stroke-linecap:butt;stroke-linejoin:round;stroke-miterlimit:4;stroke-opacity:1;stroke-dasharray:none;stroke-dashoffset:0;marker:none;visibility:visible;display:block;overflow:visible"/><path id="path6079" d="m 2.8347786,36.668171 -0.079502,1.352417 13.5731894,0 L 2.9540279,37.8217 2.8347776,36.668171 z" style="opacity:.23076926;color:#000;fill:#fff;fill-opacity:1;fill-rule:evenodd;stroke:none;stroke-width:1.5;marker:none;visibility:visible;display:block;overflow:visible"/><path style="color:#000;fill:#cacaca;fill-opacity:1;fill-rule:evenodd;stroke:#686868;stroke-width:.39940256;stroke-linecap:butt;stroke-linejoin:miter;stroke-miterlimit:4;stroke-opacity:1;stroke-dasharray:none;stroke-dashoffset:0;marker:none;visibility:visible;display:block;overflow:visible" id="path8616" d="m 2.5483042,26.149158 13.1296238,0 1.331264,10.259486 -15.1724659,0 0.7115781,-10.259486 z"/><path id="path3660" d="m 2.2967292,25.040015 13.4752548,0 1.366301,10.783862 -15.5718657,0 0.7303099,-10.783862 z" style="color:#000;fill:url(#linearGradient5714);fill-opacity:1;fill-rule:evenodd;stroke:#868a84;stroke-width:.39940268;stroke-linecap:butt;stroke-linejoin:miter;stroke-miterlimit:4;stroke-opacity:1;stroke-dasharray:none;stroke-dashoffset:0;marker:none;visibility:visible;display:block;overflow:visible"/><path style="color:#000;fill:none;stroke:#fff;stroke-width:.3994022;stroke-linecap:butt;stroke-linejoin:miter;stroke-miterlimit:4;stroke-opacity:1;stroke-dasharray:none;stroke-dashoffset:0;marker:none;visibility:visible;display:block;overflow:visible" id="path4545" d="m 2.6745643,25.439418 12.7409507,0 1.216192,9.985056 -14.6382134,0 0.6810707,-9.985056 z"/><path id="path6077" d="m 16.92625,35.639707 -0.288121,-2.351381 -2.50144,2.360502 2.789561,-0.0092 z" style="opacity:.20879122;color:#000;fill:#000;fill-opacity:1;fill-rule:evenodd;stroke:none;stroke-width:1.5;marker:none;visibility:visible;display:block;overflow:visible"/><path id="path4788" d="m 15.644737,17.903767 a 1.8119612,3.6681163 0 1 1 -3.623922,0 1.8119612,3.6681163 0 1 1 3.623922,0 z" transform="matrix(0.64715795,0,0,0.45002521,0.16185613,18.573929)" style="opacity:.33516487;color:#000;fill:url(#radialGradient5716);fill-opacity:1;fill-rule:evenodd;stroke:none;stroke-width:1.5;marker:none;visibility:visible;display:block;overflow:visible"/><path style="opacity:.33516487;color:#000;fill:url(#radialGradient5718);fill-opacity:1;fill-rule:evenodd;stroke:none;stroke-width:1.5;marker:none;visibility:visible;display:block;overflow:visible" id="path4784" d="m 15.644737,17.903767 a 1.8119612,3.6681163 0 1 1 -3.623922,0 1.8119612,3.6681163 0 1 1 3.623922,0 z" transform="matrix(0.44971985,0,0,0.38265614,7.5437261,19.532979)"/><path id="path4774" d="m 15.644737,17.903767 a 1.8119612,3.6681163 0 1 1 -3.623922,0 1.8119612,3.6681163 0 1 1 3.623922,0 z" transform="matrix(0.44971985,0,0,0.42115303,-1.9962698,18.984954)" style="opacity:.33516487;color:#000;fill:url(#radialGradient5720);fill-opacity:1;fill-rule:evenodd;stroke:none;stroke-width:1.5;marker:none;visibility:visible;display:block;overflow:visible"/><path style="color:#000;fill:none;stroke:url(#radialGradient5722);stroke-width:.84625739;stroke-linecap:butt;stroke-linejoin:miter;stroke-miterlimit:4;stroke-opacity:1;stroke-dasharray:none;stroke-dashoffset:0;marker:none;visibility:visible;display:block;overflow:visible" id="path6095" d="m 14.584077,16.710526 a 1.5909903,1.5909903 0 1 1 -3.18198,0 1.5909903,1.5909903 0 1 1 3.18198,0 z" transform="matrix(0.47181397,0,0,0.47211273,-2.1155125,19.079939)"/><path id="path4691" d="m 14.584077,16.710526 a 1.5909903,1.5909903 0 1 1 -3.18198,0 1.5909903,1.5909903 0 1 1 3.18198,0 z" transform="matrix(0.34978215,0,0,0.35001977,-0.53877064,21.120172)" style="color:#000;fill:url(#radialGradient5724);fill-opacity:1;fill-rule:evenodd;stroke:none;stroke-width:1;marker:none;visibility:visible;display:block;overflow:visible"/><path style="color:#000;fill:url(#radialGradient5726);fill-opacity:1;fill-rule:evenodd;stroke:none;stroke-width:1;marker:none;visibility:visible;display:block;overflow:visible" id="path4703" d="m 14.584077,16.710526 a 1.5909903,1.5909903 0 1 1 -3.18198,0 1.5909903,1.5909903 0 1 1 3.18198,0 z" transform="matrix(0.34978215,0,0,0.35001977,9.050195,21.120172)"/><path style="color:#000;fill:none;stroke:url(#linearGradient5728);stroke-width:1.59681714;stroke-linecap:round;stroke-linejoin:miter;stroke-miterlimit:4;stroke-opacity:1;stroke-dasharray:none;stroke-dashoffset:0;marker:none;visibility:visible;display:block;overflow:visible" id="path4701" d="m 14.411076,16.251658 a 1.4584079,4.3310289 0 1 1 1.587182,-4.284643" transform="matrix(-0.31279273,0,0,0.45002521,18.133206,19.568358)"/><path id="path4762" d="m 14.411076,16.251658 a 1.4584079,4.3310289 0 1 1 1.587182,-4.284643" transform="matrix(0.44971985,0,0,0.45002521,-2.5227285,19.568358)" style="color:#000;fill:none;stroke:url(#linearGradient5730);stroke-width:1.33171868;stroke-linecap:round;stroke-linejoin:miter;stroke-miterlimit:4;stroke-opacity:1;stroke-dasharray:none;stroke-dashoffset:0;marker:none;visibility:visible;display:block;overflow:visible"/><rect id="rect4707" width="9.818" height=".399" x="3.988" y="24.84" style="color:#000;fill:#868a84;fill-opacity:1;fill-rule:evenodd;stroke:none;stroke-width:1.5;marker:none;visibility:visible;display:block;overflow:visible"/><path id="path4710" d="m 14.584077,16.710526 a 1.5909903,1.5909903 0 1 1 -3.18198,0 1.5909903,1.5909903 0 1 1 3.18198,0 z" transform="matrix(0.34978215,0,0,0.35001977,4.467462,21.099219)" style="color:#000;fill:url(#radialGradient5732);fill-opacity:1;fill-rule:evenodd;stroke:none;stroke-width:1;marker:none;visibility:visible;display:block;overflow:visible"/><rect id="rect4714" width=".928" height="4.585" x="8.542" y="22.568" rx="1.031" ry="1.031" style="color:#000;fill:url(#linearGradient5734);fill-opacity:1;fill-rule:evenodd;stroke:none;stroke-width:1.5;marker:none;visibility:visible;display:block;overflow:visible"/><path id="path2210" d="m 13.773695,35.69538 c 0.931078,0.06098 3.042727,-1.128303 2.847514,-2.639716 -0.458649,0.707398 -1.396107,0.340347 -2.601573,0.386773 0,0 0.151299,2.036371 -0.245941,2.252943 z" style="color:#000;fill:url(#linearGradient5736);fill-opacity:1;fill-rule:evenodd;stroke:#868a84;stroke-width:.39940241;stroke-linecap:butt;stroke-linejoin:miter;stroke-miterlimit:4;stroke-opacity:1;stroke-dasharray:none;stroke-dashoffset:0;marker:none;visibility:visible;display:inline;overflow:visible"/><path style="opacity:.36931817;color:#000;fill:none;stroke:url(#linearGradient5738);stroke-width:.39940226;stroke-linecap:butt;stroke-linejoin:miter;stroke-miterlimit:4;stroke-opacity:1;stroke-dasharray:none;stroke-dashoffset:0;marker:none;visibility:visible;display:inline;overflow:visible" id="path2247" d="m 14.405623,35.025073 c 0.401876,-0.19964 1.299205,-0.626636 1.68043,-1.175774 -0.485929,0.110272 -0.847209,0.02574 -1.655365,0.02035 0,0 0.03004,0.929243 -0.02499,1.15549 z"/><path id="path6081" d="m 23.8125,5.03125 a 0.84375,0.84375 0 1 1 -1.6875,0 0.84375,0.84375 0 1 1 1.6875,0 z" transform="matrix(0.23668258,0,0,0.23668258,3.4525714,22.251597)" style="opacity:.55494504;color:#000;fill:#000;fill-opacity:1;fill-rule:evenodd;stroke:none;stroke-width:1.5;marker:none;visibility:visible;display:block;overflow:visible"/><path style="opacity:.55494504;color:#000;fill:#fff;fill-opacity:1;fill-rule:evenodd;stroke:none;stroke-width:1.5;marker:none;visibility:visible;display:block;overflow:visible" id="path6083" d="m 23.8125,5.03125 a 0.84375,0.84375 0 1 1 -1.6875,0 0.84375,0.84375 0 1 1 1.6875,0 z" transform="matrix(0.25147563,0,0,0.25147563,-2.1668041,22.189649)"/><path id="path6085" d="m 23.8125,5.03125 a 0.84375,0.84375 0 1 1 -1.6875,0 0.84375,0.84375 0 1 1 1.6875,0 z" transform="matrix(0.25147563,0,0,0.25147563,8.1677291,22.189649)" style="opacity:.55494504;color:#000;fill:#fff;fill-opacity:1;fill-rule:evenodd;stroke:none;stroke-width:1.5;marker:none;visibility:visible;display:block;overflow:visible"/><path id="path6113" d="m 14.584077,16.710526 a 1.5909903,1.5909903 0 1 1 -3.18198,0 1.5909903,1.5909903 0 1 1 3.18198,0 z" transform="matrix(0.47181397,0,0,0.47211273,2.8886183,19.079939)" style="color:#000;fill:none;stroke:url(#radialGradient5740);stroke-width:.84625739;stroke-linecap:butt;stroke-linejoin:miter;stroke-miterlimit:4;stroke-opacity:1;stroke-dasharray:none;stroke-dashoffset:0;marker:none;visibility:visible;display:block;overflow:visible"/><path style="color:#000;fill:none;stroke:url(#radialGradient5742);stroke-width:.84625739;stroke-linecap:butt;stroke-linejoin:miter;stroke-miterlimit:4;stroke-opacity:1;stroke-dasharray:none;stroke-dashoffset:0;marker:none;visibility:visible;display:block;overflow:visible" id="path6117" d="m 14.584077,16.710526 a 1.5909903,1.5909903 0 1 1 -3.18198,0 1.5909903,1.5909903 0 1 1 3.18198,0 z" transform="matrix(0.47181397,0,0,0.47211273,7.4867719,19.079939)"/><text id="text3095" x="6.804" y="34.364" xml:space="preserve" style="font-size:8.40635395px;font-style:normal;font-variant:normal;font-weight:400;font-stretch:normal;line-height:125%;letter-spacing:0;word-spacing:0;fill:#000;fill-opacity:1;stroke:none;font-family:Linux Libertine O;-inkscape-font-specification:Linux Libertine O"><tspan style="font-style:normal;font-variant:normal;font-weight:700;font-stretch:normal;font-family:Kozuka Gothic Pro M;-inkscape-font-specification:Kozuka Gothic Pro M Bold" id="tspan3097" x="6.804" y="34.364">3</tspan></text><g id="layer1-0" transform="translate(10.425,7.998009)"><path style="opacity:.38461537;color:#000;fill:url(#radialGradient5744);fill-opacity:1;fill-rule:evenodd;stroke:none;stroke-width:1;marker:none;visibility:visible;display:block;overflow:visible" id="path4571-1" d="m 45.785164,42.210564 c 0,3.295049 -9.319397,5.966213 -20.815457,5.966213 -11.496059,0 -20.8154559,-2.671164 -20.8154559,-5.966213 0,-3.295049 9.3193969,-5.966214 20.8154559,-5.966214 11.49606,0 20.815457,2.671165 20.815457,5.966214 z" transform="matrix(0.47921121,0,0,0.25968095,-2.9440852,32.353207)"/><path style="color:#000;fill:url(#linearGradient5746);fill-opacity:1;fill-rule:evenodd;stroke:#2e3436;stroke-width:.39940217;stroke-linecap:butt;stroke-linejoin:round;stroke-miterlimit:4;stroke-opacity:1;stroke-dasharray:none;stroke-dashoffset:0;marker:none;visibility:visible;display:block;overflow:visible" id="path4535-8" d="m 2.2992924,39.1745 -0.092836,4.345788 13.6110406,0 L 15.604674,38.458984 2.2992924,39.1745 z"/><path style="opacity:.23076926;color:#000;fill:#fff;fill-opacity:1;fill-rule:evenodd;stroke:none;stroke-width:1.5;marker:none;visibility:visible;display:block;overflow:visible" id="path6079-5" d="m 2.4347786,41.968171 -0.079502,1.352417 13.5731894,0 L 2.5540279,43.1217 2.4347776,41.968171 z"/><path id="path8616-6" d="m 2.1483042,31.449158 13.1296238,0 1.331264,10.259486 -15.1724659,0 0.7115781,-10.259486 z" style="color:#000;fill:#cacaca;fill-opacity:1;fill-rule:evenodd;stroke:#686868;stroke-width:.39940256;stroke-linecap:butt;stroke-linejoin:miter;stroke-miterlimit:4;stroke-opacity:1;stroke-dasharray:none;stroke-dashoffset:0;marker:none;visibility:visible;display:block;overflow:visible"/><path style="color:#000;fill:url(#linearGradient5748);fill-opacity:1;fill-rule:evenodd;stroke:#868a84;stroke-width:.39940268;stroke-linecap:butt;stroke-linejoin:miter;stroke-miterlimit:4;stroke-opacity:1;stroke-dasharray:none;stroke-dashoffset:0;marker:none;visibility:visible;display:block;overflow:visible" id="path3660-6" d="m 1.8967292,30.340015 13.4752548,0 1.366301,10.783862 -15.5718657,0 0.7303099,-10.783862 z"/><path id="path4545-6" d="m 2.2745643,30.739418 12.7409507,0 1.216192,9.985056 -14.6382134,0 0.6810707,-9.985056 z" style="color:#000;fill:none;stroke:#fff;stroke-width:.3994022;stroke-linecap:butt;stroke-linejoin:miter;stroke-miterlimit:4;stroke-opacity:1;stroke-dasharray:none;stroke-dashoffset:0;marker:none;visibility:visible;display:block;overflow:visible"/><path style="opacity:.20879122;color:#000;fill:#000;fill-opacity:1;fill-rule:evenodd;stroke:none;stroke-width:1.5;marker:none;visibility:visible;display:block;overflow:visible" id="path6077-2" d="m 16.52625,40.939707 -0.288121,-2.351381 -2.50144,2.360502 2.789561,-0.0092 z"/><path style="opacity:.33516487;color:#000;fill:url(#radialGradient5750);fill-opacity:1;fill-rule:evenodd;stroke:none;stroke-width:1.5;marker:none;visibility:visible;display:block;overflow:visible" id="path4788-0" d="m 15.644737,17.903767 c 0,2.025844 -0.811242,3.668116 -1.811961,3.668116 -1.000718,0 -1.811961,-1.642272 -1.811961,-3.668116 0,-2.025845 0.811243,-3.668117 1.811961,-3.668117 1.000719,0 1.811961,1.642272 1.811961,3.668117 z" transform="matrix(0.64715795,0,0,0.45002521,-0.23814387,23.873929)"/><path id="path4784-6" d="m 15.644737,17.903767 c 0,2.025844 -0.811242,3.668116 -1.811961,3.668116 -1.000718,0 -1.811961,-1.642272 -1.811961,-3.668116 0,-2.025845 0.811243,-3.668117 1.811961,-3.668117 1.000719,0 1.811961,1.642272 1.811961,3.668117 z" transform="matrix(0.44971985,0,0,0.38265614,7.1437261,24.832979)" style="opacity:.33516487;color:#000;fill:url(#radialGradient5752);fill-opacity:1;fill-rule:evenodd;stroke:none;stroke-width:1.5;marker:none;visibility:visible;display:block;overflow:visible"/><path style="opacity:.33516487;color:#000;fill:url(#radialGradient5754);fill-opacity:1;fill-rule:evenodd;stroke:none;stroke-width:1.5;marker:none;visibility:visible;display:block;overflow:visible" id="path4774-3" d="m 15.644737,17.903767 c 0,2.025844 -0.811242,3.668116 -1.811961,3.668116 -1.000718,0 -1.811961,-1.642272 -1.811961,-3.668116 0,-2.025845 0.811243,-3.668117 1.811961,-3.668117 1.000719,0 1.811961,1.642272 1.811961,3.668117 z" transform="matrix(0.44971985,0,0,0.42115303,-2.3962698,24.284954)"/><path id="path6095-9" d="m 14.584077,16.710526 c 0,0.878679 -0.712311,1.59099 -1.59099,1.59099 -0.87868,0 -1.59099,-0.712311 -1.59099,-1.59099 0,-0.87868 0.71231,-1.590991 1.59099,-1.590991 0.878679,0 1.59099,0.712311 1.59099,1.590991 z" transform="matrix(0.47181397,0,0,0.47211273,-2.5155125,24.379939)" style="color:#000;fill:none;stroke:url(#radialGradient5756);stroke-width:.84625739;stroke-linecap:butt;stroke-linejoin:miter;stroke-miterlimit:4;stroke-opacity:1;stroke-dasharray:none;stroke-dashoffset:0;marker:none;visibility:visible;display:block;overflow:visible"/><path style="color:#000;fill:url(#radialGradient5758);fill-opacity:1;fill-rule:evenodd;stroke:none;stroke-width:1;marker:none;visibility:visible;display:block;overflow:visible" id="path4691-8" d="m 14.584077,16.710526 c 0,0.878679 -0.712311,1.59099 -1.59099,1.59099 -0.87868,0 -1.59099,-0.712311 -1.59099,-1.59099 0,-0.87868 0.71231,-1.590991 1.59099,-1.590991 0.878679,0 1.59099,0.712311 1.59099,1.590991 z" transform="matrix(0.34978215,0,0,0.35001977,-0.93877064,26.420172)"/><path id="path4703-0" d="m 14.584077,16.710526 c 0,0.878679 -0.712311,1.59099 -1.59099,1.59099 -0.87868,0 -1.59099,-0.712311 -1.59099,-1.59099 0,-0.87868 0.71231,-1.590991 1.59099,-1.590991 0.878679,0 1.59099,0.712311 1.59099,1.590991 z" transform="matrix(0.34978215,0,0,0.35001977,8.650195,26.420172)" style="color:#000;fill:url(#radialGradient5760);fill-opacity:1;fill-rule:evenodd;stroke:none;stroke-width:1;marker:none;visibility:visible;display:block;overflow:visible"/><path id="path4701-9" d="m 14.411076,16.251658 c -0.802309,-0.21126 -1.395039,-2.314009 -1.323901,-4.696623 0.07114,-2.3826136 0.779207,-4.1428439 1.581516,-3.9315843 0.756379,0.1991654 1.334732,2.0885892 1.329567,4.3435643" transform="matrix(-0.31279273,0,0,0.45002521,17.733206,24.868358)" style="color:#000;fill:none;stroke:url(#linearGradient5762);stroke-width:1.59681714;stroke-linecap:round;stroke-linejoin:miter;stroke-miterlimit:4;stroke-opacity:1;stroke-dasharray:none;stroke-dashoffset:0;marker:none;visibility:visible;display:block;overflow:visible"/><path style="color:#000;fill:none;stroke:url(#linearGradient5764);stroke-width:1.33171868;stroke-linecap:round;stroke-linejoin:miter;stroke-miterlimit:4;stroke-opacity:1;stroke-dasharray:none;stroke-dashoffset:0;marker:none;visibility:visible;display:block;overflow:visible" id="path4762-0" d="m 14.411076,16.251658 c -0.802309,-0.21126 -1.395039,-2.314009 -1.323901,-4.696623 0.07114,-2.3826136 0.779207,-4.1428439 1.581516,-3.9315843 0.756379,0.1991654 1.334732,2.0885892 1.329567,4.3435643" transform="matrix(0.44971985,0,0,0.45002521,-2.9227285,24.868358)"/><rect style="color:#000;fill:#868a84;fill-opacity:1;fill-rule:evenodd;stroke:none;stroke-width:1.5;marker:none;visibility:visible;display:block;overflow:visible" id="rect4707-5" width="9.818" height=".399" x="3.588" y="30.14"/><path style="color:#000;fill:url(#radialGradient5766);fill-opacity:1;fill-rule:evenodd;stroke:none;stroke-width:1;marker:none;visibility:visible;display:block;overflow:visible" id="path4710-3" d="m 14.584077,16.710526 c 0,0.878679 -0.712311,1.59099 -1.59099,1.59099 -0.87868,0 -1.59099,-0.712311 -1.59099,-1.59099 0,-0.87868 0.71231,-1.590991 1.59099,-1.590991 0.878679,0 1.59099,0.712311 1.59099,1.590991 z" transform="matrix(0.34978215,0,0,0.35001977,4.067462,26.399219)"/><rect style="color:#000;fill:url(#linearGradient5768);fill-opacity:1;fill-rule:evenodd;stroke:none;stroke-width:1.5;marker:none;visibility:visible;display:block;overflow:visible" id="rect4714-4" width=".928" height="4.585" x="8.142" y="27.868" rx="1.031" ry="1.031"/><path style="color:#000;fill:url(#linearGradient5770);fill-opacity:1;fill-rule:evenodd;stroke:#868a84;stroke-width:.39940241;stroke-linecap:butt;stroke-linejoin:miter;stroke-miterlimit:4;stroke-opacity:1;stroke-dasharray:none;stroke-dashoffset:0;marker:none;visibility:visible;display:inline;overflow:visible" id="path2210-4" d="m 13.373695,40.99538 c 0.931078,0.06098 3.042727,-1.128303 2.847514,-2.639716 -0.458649,0.707398 -1.396107,0.340347 -2.601573,0.386773 0,0 0.151299,2.036371 -0.245941,2.252943 z"/><path id="path2247-1" d="m 14.005623,40.325073 c 0.401876,-0.19964 1.299205,-0.626636 1.68043,-1.175774 -0.485929,0.110272 -0.847209,0.02574 -1.655365,0.02035 0,0 0.03004,0.929243 -0.02499,1.15549 z" style="opacity:.36931817;color:#000;fill:none;stroke:url(#linearGradient5772);stroke-width:.39940226;stroke-linecap:butt;stroke-linejoin:miter;stroke-miterlimit:4;stroke-opacity:1;stroke-dasharray:none;stroke-dashoffset:0;marker:none;visibility:visible;display:inline;overflow:visible"/><path style="opacity:.55494504;color:#000;fill:#000;fill-opacity:1;fill-rule:evenodd;stroke:none;stroke-width:1.5;marker:none;visibility:visible;display:block;overflow:visible" id="path6081-5" d="m 23.8125,5.03125 c 0,0.4659903 -0.37776,0.84375 -0.84375,0.84375 -0.46599,0 -0.84375,-0.3777597 -0.84375,-0.84375 0,-0.4659903 0.37776,-0.84375 0.84375,-0.84375 0.46599,0 0.84375,0.3777597 0.84375,0.84375 z" transform="matrix(0.23668258,0,0,0.23668258,3.0525714,27.551597)"/><path id="path6083-0" d="m 23.8125,5.03125 c 0,0.4659903 -0.37776,0.84375 -0.84375,0.84375 -0.46599,0 -0.84375,-0.3777597 -0.84375,-0.84375 0,-0.4659903 0.37776,-0.84375 0.84375,-0.84375 0.46599,0 0.84375,0.3777597 0.84375,0.84375 z" transform="matrix(0.25147563,0,0,0.25147563,-2.5668041,27.489649)" style="opacity:.55494504;color:#000;fill:#fff;fill-opacity:1;fill-rule:evenodd;stroke:none;stroke-width:1.5;marker:none;visibility:visible;display:block;overflow:visible"/><path style="opacity:.55494504;color:#000;fill:#fff;fill-opacity:1;fill-rule:evenodd;stroke:none;stroke-width:1.5;marker:none;visibility:visible;display:block;overflow:visible" id="path6085-0" d="m 23.8125,5.03125 c 0,0.4659903 -0.37776,0.84375 -0.84375,0.84375 -0.46599,0 -0.84375,-0.3777597 -0.84375,-0.84375 0,-0.4659903 0.37776,-0.84375 0.84375,-0.84375 0.46599,0 0.84375,0.3777597 0.84375,0.84375 z" transform="matrix(0.25147563,0,0,0.25147563,7.7677291,27.489649)"/><path style="color:#000;fill:none;stroke:url(#radialGradient5774);stroke-width:.84625739;stroke-linecap:butt;stroke-linejoin:miter;stroke-miterlimit:4;stroke-opacity:1;stroke-dasharray:none;stroke-dashoffset:0;marker:none;visibility:visible;display:block;overflow:visible" id="path6113-2" d="m 14.584077,16.710526 c 0,0.878679 -0.712311,1.59099 -1.59099,1.59099 -0.87868,0 -1.59099,-0.712311 -1.59099,-1.59099 0,-0.87868 0.71231,-1.590991 1.59099,-1.590991 0.878679,0 1.59099,0.712311 1.59099,1.590991 z" transform="matrix(0.47181397,0,0,0.47211273,2.4886183,24.379939)"/><path id="path6117-0" d="m 14.584077,16.710526 c 0,0.878679 -0.712311,1.59099 -1.59099,1.59099 -0.87868,0 -1.59099,-0.712311 -1.59099,-1.59099 0,-0.87868 0.71231,-1.590991 1.59099,-1.590991 0.878679,0 1.59099,0.712311 1.59099,1.590991 z" transform="matrix(0.47181397,0,0,0.47211273,7.0867719,24.379939)" style="color:#000;fill:none;stroke:url(#radialGradient5776);stroke-width:.84625739;stroke-linecap:butt;stroke-linejoin:miter;stroke-miterlimit:4;stroke-opacity:1;stroke-dasharray:none;stroke-dashoffset:0;marker:none;visibility:visible;display:block;overflow:visible"/><text style="font-size:8.40635395px;font-style:normal;font-variant:normal;font-weight:400;font-stretch:normal;line-height:125%;letter-spacing:0;word-spacing:0;fill:#000;fill-opacity:1;stroke:none;font-family:Linux Libertine O;-inkscape-font-specification:Linux Libertine O" id="text3095-2" x="4.104" y="39.264" xml:space="preserve"><tspan id="tspan3097-6" x="4.104" y="39.264" style="font-style:normal;font-variant:normal;font-weight:700;font-stretch:normal;font-family:Kozuka Gothic Pro M;-inkscape-font-specification:Kozuka Gothic Pro M Bold">12</tspan></text></g><path id="path3983" d="m 20.046678,45.063798 -11.9999995,-13.6" style="opacity:.62601624;fill:none;stroke:#d70000;stroke-width:1;stroke-linecap:round;stroke-linejoin:miter;stroke-miterlimit:4;stroke-opacity:1;stroke-dasharray:none;marker-start:url(#Arrow2MstartK);filter:url(#filter5191)"/></g></svg>